<?xml version="1.0" encoding="UTF-8"?>
<svg width="21px" height="21px" viewBox="0 0 21 21" version="1.1" xmlns="http://www.w3.org/2000/svg" xmlns:xlink="http://www.w3.org/1999/xlink">
    <!-- Generator: Sketch 57.1 (83088) - https://sketch.com -->
    <title>首页/icon/未选中</title>
    <desc>Created with Sketch.</desc>
    <g id="Page-1" stroke="none" stroke-width="1" fill="none" fill-rule="evenodd">
        <g id="登录" transform="translate(-117.000000, -768.000000)" fill="#999999" fill-rule="nonzero">
            <g id="Group-7-Copy-2" transform="translate(0.000000, 762.000000)">
                <g id="首页2" transform="translate(117.000000, 6.000000)">
                    <g id="首页">
                        <g id="首页/icon/未选中">
                            <path d="M15.5453923,20.9781114 L5.12555399,20.9781114 C3.04158633,20.9781114 1.33652187,19.2730469 1.33652187,17.1890792 L1.33652187,6.76924092 C1.33652187,6.248249 1.76278798,5.8219829 2.2837799,5.8219829 C2.80477181,5.8219829 3.23103792,6.248249 3.23103794,6.76924092 L3.23103794,17.1890792 C3.23103794,18.2310631 4.08357016,19.0835953 5.12555399,19.0835953 L15.5453923,19.0835953 C16.5873761,19.0835953 17.4399084,18.2310631 17.4399084,17.1890792 L17.4399084,6.76924092 C17.4399084,6.248249 17.8661745,5.8219829 18.3871664,5.8219829 C18.9081583,5.8219829 19.3344244,6.248249 19.3344244,6.76924092 L19.3344244,17.1890792 C19.3344244,19.2730469 17.6767229,20.9781114 15.5453923,20.9781114 Z" id="Path"></path>
                            <path d="M19.9027792,8.23749088 C19.7133276,8.23749088 19.523876,8.19012798 19.3817873,8.09540217 C16.16111,6.01143451 11.851086,3.12229751 10.382836,2.12767659 C8.91458611,3.12229751 4.65192498,5.96407161 1.47861058,8.04803927 C1.05234448,8.33221667 0.436626753,8.19012798 0.152449331,7.76386187 C-0.131728066,7.33759576 0.0103606206,6.72187804 0.436626753,6.43770062 C4.32038468,3.92746685 9.81448123,0.233160542 9.86184413,0.185797638 C10.1933844,-0.05101688 10.6196506,-0.05101688 10.903828,0.185797638 C10.9511909,0.233160542 16.5400132,3.97482975 20.4237711,6.48506352 C20.8500372,6.76924092 20.992126,7.33759574 20.7079486,7.81122477 C20.5184969,8.09540217 20.1869566,8.23749088 19.9027792,8.23749088 Z" id="Path"></path>
                            <path d="M14.1245053,15.2945632 L6.54644102,15.2945632 C6.02544911,15.2945632 5.599183,14.8682971 5.599183,14.3473052 C5.599183,13.8263132 6.02544911,13.4000471 6.54644102,13.4000471 L14.1245053,13.4000471 C14.6454972,13.4000471 15.0717633,13.8263132 15.0717633,14.3473052 C15.0717633,14.8682971 14.6454972,15.2945632 14.1245053,15.2945632 Z" id="Path"></path>
                        </g>
                    </g>
                </g>
            </g>
        </g>
    </g>
</svg>