<?xml version="1.0" encoding="UTF-8"?>
<svg width="21px" height="21px" viewBox="0 0 21 21" version="1.1" xmlns="http://www.w3.org/2000/svg" xmlns:xlink="http://www.w3.org/1999/xlink">
    <!-- Generator: Sketch 57.1 (83088) - https://sketch.com -->
    <title>我的/icon/已选中</title>
    <desc>Created with Sketch.</desc>
    <g id="Page-1" stroke="none" stroke-width="1" fill="none" fill-rule="evenodd">
        <g id="用户中心" transform="translate(-238.000000, -768.000000)" fill-rule="nonzero">
            <g id="Group-7-Copy" transform="translate(0.000000, 762.000000)">
                <g id="我的-2" transform="translate(238.000000, 6.000000)">
                    <g id="我的-copy">
                        <g id="我的/icon/已选中">
                            <path d="M10.2784359,11.4645008 C7.1145941,11.4645008 4.54931694,8.89922365 4.54931694,5.73538185 C4.54931694,2.57154004 7.1145941,0.00626288642 10.2784359,0.00626288642 C13.4422777,0.00626288642 16.0075549,2.57154004 16.0075549,5.73538185 C16.0075549,8.89922365 13.4422777,11.4645008 10.2784359,11.4645008 Z M10.2784359,1.67369302 C8.05519572,1.67369302 6.2595017,3.46938702 6.2595017,5.69262723 C6.2595017,7.91586743 8.05519569,9.71156143 10.2784359,9.71156143 C12.5016761,9.71156143 14.2973701,7.91586743 14.2973701,5.69262723 C14.2973701,3.46938702 12.5016761,1.67369302 10.2784359,1.67369302 Z" id="Shape" fill="#5F6DFA"></path>
                            <path d="M0.872419683,20.9132716 C0.402118873,20.9132716 0.0173273058,20.5284801 0.0173273058,20.0581792 C0.0173273058,14.4145695 4.63482616,9.79707067 10.2784359,9.79707067 C11.2190375,9.79707067 13.4850323,10.2673715 14.3401247,10.6521631 C14.7676709,10.8659362 15.0669532,11.2507277 14.9386894,11.7210285 C14.8104255,12.1913293 14.2973701,12.5333663 13.8698239,12.3195932 C13.1429954,11.9775562 11.0480191,11.55001 10.2784359,11.55001 C5.5754278,11.55001 1.72751208,15.3979258 1.72751208,20.1009339 C1.72751208,20.5284801 1.34272052,20.9132716 0.872419683,20.9132716 L0.872419683,20.9132716 Z" id="Path" fill="#5F6DFA"></path>
                            <path d="M19.6844521,20.9132716 C19.2141513,20.9132716 18.8293597,20.5284801 18.8293597,20.0581792 C18.8293597,16.6378097 16.8198926,13.5594771 13.6560508,12.1913293 C13.2285046,12.0203109 13.0147315,11.5072554 13.2285046,11.0797092 C13.3995231,10.6521631 13.9125785,10.4383899 14.3401247,10.6521631 C18.1025312,12.2768386 20.5395445,15.9964904 20.5395445,20.0581792 C20.5395445,20.5284801 20.1547529,20.9132716 19.6844521,20.9132716 Z" id="Path" fill="#DE8B12"></path>
                        </g>
                    </g>
                </g>
            </g>
        </g>
    </g>
</svg>